<svg width="217" height="70" viewBox="0 0 217 70" fill="none" xmlns="http://www.w3.org/2000/svg">
<path d="M96.4267 18.6032C94.6697 16.7199 92.5223 15.1926 90.0362 14.0673C87.527 12.9304 84.7308 12.3562 81.7164 12.3562C78.702 12.3562 75.9057 12.9189 73.3794 14.0213C70.8702 15.1237 68.6712 16.6453 66.851 18.5458C65.0309 20.4463 63.6012 22.6799 62.6021 25.189C61.6088 27.6924 61.1035 30.3795 61.1035 33.1815C61.1035 35.9835 61.6088 38.6763 62.6021 41.2027C63.6012 43.7348 65.0137 45.9798 66.8108 47.8746C68.6137 49.7808 70.8013 51.3081 73.3162 52.4106C75.8368 53.5187 78.6388 54.0757 81.6532 54.0757C83.6341 54.0757 85.5748 53.8173 87.4179 53.3063C89.2495 52.7953 90.9548 52.0833 92.4707 51.1818C93.998 50.2746 95.3645 49.1837 96.5358 47.9378C97.7243 46.6688 98.6832 45.2391 99.3722 43.7004L100.297 41.6391L91.1271 39.107L90.484 40.7204C90.2027 41.4266 89.8008 42.041 89.2495 42.6094C88.6639 43.2123 87.9806 43.7291 87.2227 44.1482C86.4246 44.5903 85.5519 44.9406 84.6217 45.2047C82.4743 45.8133 80.1202 45.687 78.1106 44.8315C76.9105 44.3205 75.8254 43.6027 74.8837 42.6955C73.9421 41.7941 73.1669 40.6917 72.5698 39.4285C72.2483 38.7395 71.9956 38.0046 71.8119 37.2237H101.439L101.749 35.6562C101.812 35.3289 101.858 34.9212 101.887 34.4102C101.91 33.9566 101.927 33.4571 101.927 32.9059C101.927 30.2589 101.451 27.6579 100.503 25.1833C99.556 22.6971 98.1894 20.4865 96.4382 18.609L96.4267 18.6032ZM71.6798 28.7891C71.8578 28.0886 72.0932 27.4225 72.3861 26.7967C72.9545 25.5737 73.7124 24.5115 74.6311 23.633C75.5383 22.7602 76.6177 22.0712 77.8292 21.5832C80.2408 20.6071 83.1978 20.6071 85.6093 21.5832C86.8265 22.077 87.906 22.7602 88.8189 23.6158C89.7376 24.477 90.5185 25.5507 91.1328 26.7967C91.4429 27.4283 91.6898 28.0943 91.8793 28.7891H71.6798Z" fill="black"/>
<path d="M146.627 58.7954C146.615 58.7265 146.609 58.6346 146.609 58.5025V12.9821H137.273V16.5879C136.481 15.9046 135.614 15.2845 134.684 14.7276C132.054 13.1543 129.109 12.3505 125.922 12.3505C123.218 12.3505 120.651 12.9189 118.297 14.0443C115.977 15.1524 113.928 16.6797 112.205 18.586C110.488 20.4808 109.127 22.7086 108.163 25.2005C107.192 27.6981 106.704 30.3853 106.704 33.1757C106.704 35.9662 107.141 38.5385 108.002 41.019C108.869 43.5109 110.109 45.7501 111.7 47.6679C113.307 49.6143 115.254 51.1818 117.487 52.3187C119.761 53.4785 122.293 54.0699 125.015 54.0699C129.505 54.0699 133.375 52.5771 136.573 49.6201V61.3619C136.573 63.2395 137.245 64.8701 138.577 66.1965C139.903 67.5228 141.511 68.2003 143.342 68.2003C144.491 68.2003 145.674 68.1257 146.874 67.9764L148.573 67.764V58.8643L146.701 58.7954C146.701 58.7954 146.655 58.7954 146.632 58.7954H146.627ZM132.646 43.0343C131.095 44.2745 129.287 44.8831 127.111 44.8831C125.618 44.8831 124.297 44.5903 123.057 43.9932C121.805 43.3846 120.714 42.5635 119.819 41.5529C118.911 40.5309 118.188 39.2907 117.671 37.8667C117.149 36.4371 116.879 34.904 116.879 33.325C116.879 31.8379 117.143 30.3566 117.671 28.9211C118.194 27.4914 118.934 26.211 119.876 25.1086C120.8 24.0234 121.909 23.1449 123.172 22.4961C124.395 21.8645 125.727 21.5602 127.248 21.5602C128.207 21.5602 129.206 21.7612 130.205 22.1574C131.273 22.5822 132.272 23.1449 133.18 23.8225C134.052 24.4828 134.816 25.2809 135.436 26.1995C135.993 27.0206 136.372 27.8589 136.567 28.7087V38.4811C135.516 40.261 134.202 41.7941 132.64 43.0458L132.646 43.0343Z" fill="black"/>
<path d="M172.298 43.6774C171.781 43.8783 171.207 44.0506 170.593 44.1941C169.909 44.3549 169.467 44.3894 169.22 44.3894C168.216 44.3894 167.808 44.0793 167.59 43.8439C167.217 43.4477 167.033 42.8391 167.033 41.9893V1.10241H156.996V44.2343C156.996 47.1913 157.886 49.5627 159.637 51.2852C161.383 53.002 163.731 53.869 166.631 53.869C167.825 53.869 169.203 53.7139 170.719 53.4096C172.235 53.1053 173.578 52.7149 174.71 52.2555L176.185 51.6527L174.451 42.8506L172.298 43.6831V43.6774Z" fill="black"/>
<path d="M206.335 12.9821L196.275 40.4907L185.223 12.9821H174.618L190.907 51.4632C190.195 53.2661 189.598 54.7532 189.116 55.8958C188.593 57.136 188.128 58.1006 187.732 58.7667C187.336 59.427 187.1 59.582 187.1 59.582C186.916 59.6853 186.48 59.7313 185.315 59.6451C184.758 59.605 184.195 59.5361 183.638 59.4499L181.404 59.1054V68.3898L182.937 68.7171C183.661 68.8721 184.264 68.9755 184.786 69.0271C185.303 69.0788 185.803 69.1075 186.279 69.1075C189.38 69.1075 191.9 68.3381 193.766 66.8166C195.529 65.3754 196.821 63.6644 197.602 61.7064L216.389 12.9706H206.329L206.335 12.9821Z" fill="black"/>
<path d="M58.2327 27.1929C58.2327 18.4654 55.7695 11.7533 50.8431 7.05085C48.1272 4.46133 44.7626 2.57804 40.7491 1.41821C41.8573 2.1876 42.8965 3.03738 43.8669 3.9618C46.6803 6.64893 48.822 9.88153 50.2746 13.6366C51.8077 17.5869 52.5771 22.1172 52.5771 27.1929C52.5771 32.2686 51.7962 36.8505 50.2402 40.8352C48.799 44.5272 46.6975 47.7196 43.9358 50.401C42.908 51.4 41.8056 52.3072 40.6343 53.1283C44.6994 51.957 48.1157 50.0277 50.8833 47.3406C55.781 42.5807 58.2327 35.8686 58.2327 27.1986V27.1929Z" fill="black"/>
<path d="M44.0219 43.6429C45.1243 41.9721 46.0085 40.1347 46.6861 38.1251C47.7712 34.9155 48.311 31.2695 48.311 27.1929C48.311 23.1162 47.7827 19.5276 46.7205 16.341C46.0487 14.3314 45.1702 12.494 44.0793 10.8347C43.1721 9.4509 42.1214 8.19346 40.9213 7.05085C35.9949 2.35411 28.9383 0 19.7631 0H0.086126L0 5.4891L0.086126 11.0643L5.15608 10.4729L4.14553 15.5429V54.4776H20.1937C21.3248 54.4776 22.4215 54.4374 23.4894 54.3628C30.8618 53.8403 36.6897 51.4976 40.973 47.3406C42.1271 46.221 43.1491 44.9865 44.0334 43.6487L44.0219 43.6429ZM23.4837 43.8382C22.6224 43.9472 21.721 44.0047 20.7793 44.0047H15.7094V10.4729H20.7793C21.6521 10.4729 22.4904 10.5189 23.2942 10.6107C23.6847 10.6567 24.0636 10.7141 24.4368 10.7772C24.8445 10.8519 25.2464 10.938 25.6369 11.0356C28.2493 11.7017 30.4369 12.9534 32.2111 14.7965C32.2456 14.8309 32.28 14.8654 32.3145 14.8998C33.4686 16.1228 34.3873 17.5467 35.059 19.1602C36.0122 21.4454 36.4945 24.121 36.4945 27.1871C36.4945 30.2532 36.0179 32.9346 35.059 35.2255C34.3815 36.8505 33.4686 38.2802 32.3145 39.5146C32.2686 39.5663 32.2226 39.6122 32.1709 39.6639C30.4082 41.5013 28.2321 42.7472 25.6369 43.419C24.9478 43.597 24.2301 43.7348 23.4894 43.8267L23.4837 43.8382Z" fill="black"/>
<path d="M21.4971 15.296C21.6636 15.3075 21.8243 15.3247 21.9794 15.3419C22.2722 15.3764 22.5593 15.4166 22.8464 15.4682C23.1449 15.5199 23.432 15.5831 23.7076 15.6577C25.3842 16.0883 26.7278 16.8405 27.813 17.9716L27.8876 18.0463C28.6053 18.8042 29.1738 19.6942 29.6101 20.7449C30.3336 22.4674 30.6953 24.632 30.6953 27.1814C30.6953 29.7307 30.3278 31.9068 29.6044 33.6466C29.1565 34.7145 28.5824 35.616 27.8532 36.4026L27.7613 36.5002C26.6818 37.6256 25.3498 38.3778 23.6904 38.8027C23.1966 38.929 22.6626 39.0323 22.1114 39.1012C21.9105 39.1242 21.7038 39.1472 21.4913 39.1644V15.296H21.4971Z" fill="black"/>
</svg>
